<svg xmlns="http://www.w3.org/2000/svg" width="32" height="32" viewBox="0 0 32 32"><path d="M24.94 11.44a2.75 2.75 0 0 0-2.6-1.85H9.66a2.75 2.75 0 0 0-2.6 1.85l-1.8 5.2A2.75 2.75 0 0 0 3.5 19.25v3.5c0 .41.34.75.75.75h1.5v1.75a1.75 1.75 0 1 0 3.5 0V23.5h13.5v1.75a1.75 1.75 0 1 0 3.5 0V23.5h1.5a.75.75 0 0 0 .75-.75v-3.5a2.75 2.75 0 0 0-1.76-2.61zM8.48 11.93a1.25 1.25 0 0 1 1.18-.84h12.68a1.25 1.25 0 0 1 1.18.84l1.5 4.32H6.98zM8.75 20.5a1.25 1.25 0 1 1 0-2.5 1.25 1.25 0 0 1 0 2.5m14.5 0a1.25 1.25 0 1 1 0-2.5 1.25 1.25 0 0 1 0 2.5"/></svg>
