<svg xmlns="http://www.w3.org/2000/svg" viewBox="0 0 64 122.1"><polygon points="18.7 54.9 18.7 54.9 36.9 36.7 29.2 28.9 25.1 32.9 11 18.8 11 18.8 0 7.8 0 12.2 0 18.8 0 23.2 0 23.2 0 23.3 17.4 40.7 0 58 0 58 0 84.6 0 84.6 0 106.5 0 106.5 0 122.1 3.2 118.9 3.2 118.9 10.9 111.1 10.9 111.1 11 111.1 11 84.6 11 84.6 11 62.6 18.7 54.9"/><polygon points="64 40.7 50.1 26.8 50.1 26.8 34.3 11 34.3 11 23.3 0 7.8 0 23.5 15.8 23.5 15.8 37.6 29.8 42.3 34.5 48.5 40.7 32.9 56.2 32.9 56.2 21.9 67.2 21.9 82.8 37.4 67.3 37.4 67.3 64 40.7 64 40.7 64 40.7"/></svg>
